# xmcd
#
# Track frame offsets:
#	150
#	14751
#	38214
#	59605
#	75729
#	92558
#	109382
#	127627
#	148006
#	164532
#	180365
#	197835
#	215091
#	231413
#	249093
#	260531
#	279388
#	296606
#	310950
#
# Disc length: 4348 seconds
#
# Revision: 1
# Processed by: cddbd v1.5.2PL0 Copyright (c) Steve Scherf et al.
# Submitted via: audiograbber 1.82.02
#
DISCID=1910fa13
DTITLE=Various Artist - Country Radio - September 2012
DYEAR=2012
DGENRE=Country
TTITLE0=Toby Keith - Beers Ago (Radio Party Mix)
TTITLE1=David Nail - Someone Like You
TTITLE2=Tim McGraw - Right Back Atcha Babe
TTITLE3=Kip Moore - Beer Money
TTITLE4=Heidi Newfield - Why'd You Have To Be So Good
TTITLE5=Colt Ford (Ft. Jake Owen) - Back
TTITLE6=Sara Evans - Anywhere
TTITLE7=Chris Cagle - Let There Be Cowgirls
TTITLE8=Lauren Alaina - Eighteen Inches
TTITLE9=Lost Trailers - American Beauty
TTITLE10=Carrie Underwood - Blown Away
TTITLE11=Randy Rogers Band - One More Sad Song
TTITLE12=Tim Culpepper - Pourin' Whiskey On Pain
TTITLE13=Rodney Crowell - I'm A Mess
TTITLE14=Kelly Parkes - All Cried Out
TTITLE15=Matt Linsin - Image Of You
TTITLE16=Craig Wayne Boyd - I Ain't No Quitter
TTITLE17=Terry Sprague (Ft. Kelly Weaver) - Soul Of Tennessee
TTITLE18=Alexandra Demetree - Just Alone
EXTD=
EXTT0=
EXTT1=
EXTT2=
EXTT3=
EXTT4=
EXTT5=
EXTT6=
EXTT7=
EXTT8=
EXTT9=
EXTT10=
EXTT11=
EXTT12=
EXTT13=
EXTT14=
EXTT15=
EXTT16=
EXTT17=
EXTT18=
PLAYORDER=
